<svg id="Layer_1" data-name="Layer 1" xmlns="http://www.w3.org/2000/svg" viewBox="0 0 804.8 218.99"><g id="Layer_1-2" data-name="Layer 1-2"><path d="M109,20.55V196.23H88.93L34.22,51.17V196.23H18.66V20.55H38.74L93.45,165.61V20.55Z"/><path d="M194.59,18.55c31.87,0,53.45,29.36,53.45,89.84s-21.58,89.84-53.45,89.84-53.45-29.36-53.45-89.84S162.72,18.55,194.59,18.55Zm0,15.05C172.5,33.6,157.7,60,157.7,108.39s14.8,74.79,36.89,74.79,36.89-26.36,36.89-74.79S216.67,33.6,194.59,33.6Z"/><path d="M296,35.61H258.14V20.55H350V35.61h-37.9V196.23H296Z"/><path d="M468.89,20.55V196.23H452.83V110.4H390.59v85.83H374.53V20.55h16.06V95.34h62.24V20.55Z"/><path d="M509.05,20.55h16.09V196.23H509.08Z"/><path d="M655.61,20.55V196.23H635.54L580.83,51.17V196.23H565.27V20.55h20.07l54.71,145.06V20.55Z"/><path d="M746.46,107.64h42.16v88.59h-12l-1.76-23.59C769.59,189,757,198.23,740,198.23c-32.13,0-52.2-31.37-52.2-89.84,0-58.73,24.09-89.84,54.71-89.84,27.85,0,43.41,18.57,47.43,51.69l-14.81,3.27c-3.26-26.36-14.55-39.91-32.62-39.91-22.84,0-38.15,27.36-38.15,74.79,0,48.18,13.3,74.79,37.39,74.79,20.33,0,31.37-20.33,31.37-56.22V122.7H746.5Z"/></g></svg>