<svg id="Layer_1" data-name="Layer 1" xmlns="http://www.w3.org/2000/svg" viewBox="0 0 1100.27 218.99"><g id="Layer_1-2" data-name="Layer 1-2"><path d="M93.12,181.17v15.06H20.34V20.55H90.61V35.61H36.4V95.09H80.57v15.06H36.4v71Z"/><path d="M109.93,20.55h16.82l36.38,145.31L199.52,20.55h16.82L170.91,196.23H155.34Z"/><path d="M314.21,181.17v15.06H241.43V20.55H311.7V35.61H257.5V95.09h44.17v15.06H257.5v71Z"/><path d="M378,109.39H360.39v86.84H344.34V20.55h35.38c31.88,0,47.94,15.31,47.94,44.42,0,25.1-13.05,38.4-33.13,43.17l39.4,88.09H416.6Zm-17.57-15H382c19.83,0,29.62-9.79,29.62-29.37S401.8,35.66,382,35.66H360.39Z"/><path d="M495.66,123.7v72.53H480.1V123.7L442.21,20.55h16.56l29.11,82.07L517,20.55h16.56Z"/><path d="M590,35.61H552.13V20.55H644V35.61h-37.9V196.23H590Z"/><path d="M762.94,20.55V196.23H746.87V110.4H684.64v85.83H668.57V20.55h16.07V95.34h62.23V20.55Z"/><path d="M803.09,20.55h16.06V196.23H803.09Z"/><path d="M949.65,20.55V196.23H929.58L874.87,51.17V196.23H859.34V20.55h20.08l54.7,145.06V20.55Z"/><path d="M1040.5,107.64h42.17v88.59h-12l-1.76-23.59c-5.27,16.31-17.82,25.59-34.88,25.59-32.12,0-52.2-31.37-52.2-89.84,0-58.73,24.09-89.84,54.71-89.84,27.85,0,43.41,18.57,47.43,51.69l-14.81,3.27c-3.26-26.36-14.55-39.91-32.62-39.91-22.89,0-38.2,27.4-38.2,74.79,0,48.18,13.3,74.79,37.4,74.79,20.32,0,31.37-20.33,31.37-56.22V122.7H1040.5Z"/></g></svg>